<?xml version="1.0" encoding="UTF-8" standalone="no"?>
<!-- Created with Inkscape (http://www.inkscape.org/) -->

<svg
   xmlns:dc="http://purl.org/dc/elements/1.1/"
   xmlns:cc="http://creativecommons.org/ns#"
   xmlns:rdf="http://www.w3.org/1999/02/22-rdf-syntax-ns#"
   xmlns:svg="http://www.w3.org/2000/svg"
   xmlns="http://www.w3.org/2000/svg"
   xmlns:sodipodi="http://sodipodi.sourceforge.net/DTD/sodipodi-0.dtd"
   xmlns:inkscape="http://www.inkscape.org/namespaces/inkscape"
   version="1.1"
   width="157"
   height="157"
   viewBox="0 0 157 156.99999"
   id="svg2"
   xml:space="preserve"
   inkscape:version="0.48.2 r9819"
   sodipodi:docname="mountains.svg"><sodipodi:namedview
   pagecolor="#ffffff"
   bordercolor="#666666"
   borderopacity="1"
   objecttolerance="10"
   gridtolerance="10"
   guidetolerance="10"
   inkscape:pageopacity="0"
   inkscape:pageshadow="2"
   inkscape:window-width="863"
   inkscape:window-height="582"
   id="namedview39"
   showgrid="false"
   inkscape:zoom="0.39645207"
   inkscape:cx="420.94501"
   inkscape:cy="297.64001"
   inkscape:window-x="0"
   inkscape:window-y="0"
   inkscape:window-maximized="0"
   inkscape:current-layer="svg2" /><metadata
   id="metadata22612"><rdf:RDF><cc:Work
       rdf:about=""><dc:format>image/svg+xml</dc:format><dc:type
         rdf:resource="http://purl.org/dc/dcmitype/StillImage" /><dc:title /></cc:Work></rdf:RDF></metadata><defs
   id="defs22610" />

<g
   id="Calque_2"
   transform="matrix(0.99841652,0,0,1.0041899,0,-440.77422)">
	<radialGradient
   cx="302.98441"
   cy="116.6729"
   r="79.653503"
   id="SVGID_1_"
   gradientUnits="userSpaceOnUse">
		<stop
   id="stop21"
   style="stop-color:#1d71b8;stop-opacity:0.94999999"
   offset="0" />
		<stop
   id="stop23"
   style="stop-color:#1d71b8;stop-opacity:0.5"
   offset="0.74550003" />
		<stop
   id="stop25"
   style="stop-color:#1d71b8;stop-opacity:0"
   offset="1" />
	</radialGradient>










	<g
   transform="translate(-224.454,277.30101)"
   id="g25597"><path
     d="m 270,182.5 c 0,0 8.75,-9.91 18,-9.83 9.25,0.08 8.75,3.33 13,6.58 4.25,3.25 16.75,7.5 16.75,7.5 l -13.75,12.5 -17.75,10 -19.25,-21 3,-5.75 z"
     id="path226"
     style="fill:#dadada"
     inkscape:connector-curvature="0" /><path
     d="m 262.997,256.021 c 0,0 14.869,-31.332 22.086,-43.166 7.217,-11.834 24.149,-39.946 28.75,-40.185 7.417,2.557 16.174,3.287 18.167,2.557 4.19,-1.536 8.887,13.452 11.5,19.168 3.941,8.623 14.774,36.391 16.25,38.811 6.419,10.524 4.92,22.814 4.92,22.814 H 262.997 z"
     id="path228"
     style="fill:#c6c6c6"
     inkscape:connector-curvature="0" /><path
     d="m 304.739,231.937 c 0.784,-2.075 1.603,-4.145 2.488,-6.206 -0.809,1.917 -1.618,3.833 -2.426,5.75 l -0.062,0.456 z"
     id="path230"
     style="fill:#9d9d9c"
     inkscape:connector-curvature="0" /><g
     id="g232">
		<g
   id="g234">
			<path
   d="M 326,162.5"
   id="path236"
   style="fill:none;stroke:#9f9f9f;stroke-miterlimit:10"
   inkscape:connector-curvature="0" />
		</g>
	</g><g
     id="g238">
		<path
   d="m 301.948,239.621 c 0.756,-2.129 1.518,-4.258 2.307,-6.384 0.007,-0.172 0.015,-0.344 0.021,-0.516 -0.344,0.815 -0.688,1.63 -1.032,2.445 0.416,-1 0.755,-1.999 1.055,-3.004 0.124,-3.526 0.144,-7.057 0.546,-10.569 0.098,-0.857 0.203,-1.708 0.31,-2.556 -0.41,-0.678 -0.799,-1.333 -1.156,-1.95 -2.455,-4.252 -5.821,-14.76 -10.667,-24.167 -7.823,-15.186 -17.445,-30.134 -17.917,-30.951 -0.979,-1.694 -7.137,7.105 -13.743,17.544 -0.565,0.893 -0.854,-0.257 -1.423,0.654 -2.599,4.165 -7.487,13.533 -12.355,22.106 -0.41,0.722 -1.153,1.019 -1.562,1.727 -7.218,12.501 -21.753,46.021 -21.753,46.021 0,0 10.17,12.479 16.67,12.479 6.5,0 31.392,-3.299 35.5,-5.399 3.386,-1.731 10.593,-5.416 13.024,-6.659 3.117,-4.525 7.2,-8.317 12.175,-10.821 z"
   id="path240"
   style="fill:#ffffff;stroke:#c6c6c6;stroke-width:0.25;stroke-miterlimit:10"
   inkscape:connector-curvature="0" />
		<path
   d="m 304.238,217.087 c -2.455,-4.252 -5.821,-14.76 -10.667,-24.167 -7.823,-15.186 -17.445,-30.134 -17.917,-30.951 -0.018,-0.031 -0.042,-0.052 -0.063,-0.076 0.26,0.78 0.31,1.631 0.175,2.446 0.311,0.161 0.548,0.467 0.617,0.95 0.041,0.288 0.053,0.565 0.075,0.847 0.713,2.65 1.069,4.622 0.347,7.144 0.24,1.992 0.561,3.978 0.892,6.057 0.221,1.389 0.33,2.703 -0.278,3.777 0.083,0.417 -0.019,0.87 -0.422,1.26 -2.812,2.723 -8.184,5.431 -11.22,2.001 -0.561,0.899 -1.7,1.385 -2.817,1.559 -0.045,0.089 -0.104,0.169 -0.167,0.248 0.008,0.064 0.02,0.126 0.02,0.194 0,0.759 -0.685,1.577 -1.5,1.5 -1.587,-0.15 -3.066,-0.284 -4.186,-1.564 -0.055,-0.063 -0.101,-0.129 -0.146,-0.197 -0.385,0.1 -0.765,0.207 -1.174,0.277 -2.308,4.202 -4.993,9.161 -7.674,13.883 -0.41,0.722 -1.153,1.019 -1.562,1.727 -7.218,12.501 -21.753,46.021 -21.753,46.021 0,0 10.17,12.479 16.67,12.479 6.5,0 31.392,-3.299 35.5,-5.399 3.386,-1.731 10.593,-5.416 13.024,-6.659 3.116,-4.524 7.199,-8.317 12.174,-10.821 0.756,-2.129 1.518,-4.258 2.307,-6.384 0.007,-0.172 0.015,-0.344 0.021,-0.516 -0.344,0.815 -0.688,1.63 -1.032,2.445 0.416,-1 0.755,-1.999 1.055,-3.004 0.124,-3.526 0.144,-7.057 0.546,-10.569 0.098,-0.857 0.203,-1.708 0.31,-2.556 -0.409,-0.68 -0.798,-1.335 -1.155,-1.952 z m -32.425,-25.024 c -1.492,0.048 -1.919,1.788 -1.267,2.993 0.92,1.702 -1.67,3.216 -2.591,1.514 -0.064,-0.119 -0.118,-0.248 -0.172,-0.375 -0.071,0.019 -0.152,0.021 -0.229,0.031 -0.268,0.101 -0.569,0.122 -0.89,0.033 -0.735,-0.202 -1.334,-1.079 -1.047,-1.845 0.185,-0.494 0.365,-0.989 0.5,-1.5 0.08,-0.304 0.257,-0.559 0.487,-0.748 0.098,-0.264 0.267,-0.496 0.501,-0.662 0.549,-0.949 1.386,-1.697 2.489,-1.887 0.655,-0.344 1.411,-0.528 2.218,-0.554 1.936,-0.063 1.93,2.937 10e-4,3 z m 8.026,-3.371 c -0.003,0.025 -0.01,0.011 -0.018,-0.07 -0.013,-0.026 -0.026,-0.051 -0.036,-0.066 -0.102,-0.168 -0.209,-0.333 -0.319,-0.495 -0.245,-0.363 -0.498,-0.724 -0.67,-1.129 -0.561,-1.316 -0.138,-2.716 1.289,-3.126 0.231,-0.187 0.534,-0.306 0.915,-0.306 1.585,0 1.869,2.011 0.857,2.739 0.019,0.033 0.038,0.067 0.059,0.099 0.429,0.637 0.893,1.298 0.896,2.099 0.007,1.845 -2.712,1.926 -2.973,0.255 z"
   id="path242"
   style="fill:#dadada"
   inkscape:connector-curvature="0" />
		<path
   d="m 304,217.087 c -2.455,-4.252 -5.821,-14.76 -10.667,-24.167 -0.868,-1.684 -1.759,-3.356 -2.656,-5.014 -0.215,0.185 -0.436,0.351 -0.656,0.48 -0.367,0.215 -0.696,1.22 -1.104,1.323 -0.408,1.579 -4.243,2.735 -5.917,3.875 -1.674,1.14 -3.194,2.213 -4.285,3.002 -1.091,0.789 -0.967,1.374 -1.694,1.8 -1.04,0.609 -2.306,0.773 -3.468,0.454 -0.517,-0.142 -2.402,-0.339 -3.054,-0.339 -2.705,0 -3.686,-3.926 -4.316,-4.043 -0.63,-0.117 -0.425,-0.061 -0.63,-0.117 -1.813,-0.499 -1.193,-2.175 -3.228,-3.736 -2.035,-1.561 -4.634,-1.804 -5.847,-3.866 -2.494,4.514 -5.543,10.181 -8.584,15.537 -0.41,0.722 -1.153,1.019 -1.562,1.727 -7.218,12.501 -21.753,46.021 -21.753,46.021 0,0 10.17,12.479 16.67,12.479 6.5,0 31.392,-3.299 35.5,-5.398 3.386,-1.732 10.593,-5.416 13.024,-6.659 3.116,-4.524 7.199,-8.317 12.174,-10.821 0.756,-2.128 1.518,-4.257 2.307,-6.383 0.007,-0.172 0.015,-0.344 0.021,-0.516 -0.344,0.815 -0.688,1.63 -1.032,2.445 0.416,-1 0.755,-1.999 1.055,-3.004 0.124,-3.526 0.144,-7.057 0.546,-10.569 0.098,-0.857 0.203,-1.708 0.31,-2.556 -0.408,-0.683 -0.798,-1.338 -1.154,-1.955 z"
   id="path244"
   style="fill:#936037"
   inkscape:connector-curvature="0" />
		<path
   d="m 262.932,198.062 c -0.189,-0.125 -0.383,-0.248 -0.575,-0.372 -0.001,-0.002 0,-0.004 0,-0.006 -0.238,-0.791 -0.683,-1.237 -1.202,-1.604 -0.429,-0.751 -1.376,-1.198 -2.153,-1.483 -0.103,-0.038 -0.427,-0.023 -0.616,0.059 -0.624,-0.114 -1.126,0.266 -1.431,0.84 -0.041,0.076 -0.026,0.133 0.019,0.178 -0.113,0.045 -0.231,0.125 -0.228,0.214 -0.187,0.023 -0.36,0.085 -0.416,0.171 -0.246,0.381 -0.53,0.722 -0.825,1.065 -0.12,0.14 -0.047,0.24 0.098,0.3 -0.348,0.273 0.489,0.472 0.75,0.315 0.59,-0.354 1.334,-0.575 2.021,-0.614 0.146,-0.008 0.291,0.016 0.438,0.055 0.277,0.125 0.555,0.252 0.834,0.372 0.012,0.005 0.035,0.008 0.053,0.012 0.25,0.131 0.497,0.262 0.735,0.34 0.048,0.016 0.148,0.021 0.257,0.02 0.16,0.049 0.318,0.099 0.487,0.13 0.148,0.027 0.292,-0.002 0.403,-0.054 0.163,0.104 0.326,0.208 0.486,0.314 0.259,0.17 1.216,-0.021 0.865,-0.252 z"
   id="path246"
   style="fill:#dadada"
   inkscape:connector-curvature="0" />
		<path
   d="m 305.349,220.788 c 0.006,-0.26 -0.006,-0.526 -0.057,-0.802 -0.219,-1.192 -0.656,-1.911 -1.332,-2.561 -0.921,-1.642 -1.813,-3.299 -2.705,-4.96 -0.097,-1.232 -0.161,-2.488 -0.61,-3.435 -2.75,-5.797 -4.676,-11.571 -7.93,-17.1 -0.008,-0.026 -0.009,-0.053 -0.02,-0.079 -0.227,-0.565 -0.33,-1.149 -0.417,-1.75 -0.043,-0.298 -0.209,-0.545 -0.436,-0.729 0.098,-0.813 -0.37,-1.706 -1.427,-1.706 -1.112,0 -1.582,0.991 -1.415,1.834 -0.042,0.216 -0.044,0.441 -0.002,0.658 -0.975,0.218 -1.875,0.82 -2.416,1.646 -0.555,-0.13 -1.163,0.036 -1.534,0.672 -2.443,0.455 -4.447,1.631 -5.753,3.596 -0.71,0.051 -1.436,0.532 -1.546,1.427 -0.153,1.238 -0.18,2.419 -0.167,3.667 0.002,0.218 0.047,0.407 0.116,0.576 L 277,204.747 c 0,0 0,7.253 -1.167,13.753 -1.167,6.5 -1.833,7.333 -4.667,9.333 -2.834,2 -6.833,6.333 -11.833,14 C 254.333,249.5 246,257.5 246,257.5 l 12.167,5 c 0,0 19.333,-4.5 19.833,-4.5 0.5,0 19.167,-3.833 19.792,-3.833 0.625,0 19.958,-17.167 19.958,-17.167 0,0 -9.779,-12.784 -12.401,-16.212 z"
   id="path248"
   style="fill:#7d4e24"
   inkscape:connector-curvature="0" />
		<path
   d="m 260.331,191.433 c -0.186,-0.055 -0.377,-0.071 -0.568,-0.075 -0.026,-0.07 -0.115,-0.132 -0.317,-0.161 -0.797,-0.113 -1.333,-0.782 -2.195,-0.821 -0.312,-0.015 -0.783,0.084 -1.013,0.352 -0.257,-0.101 -0.679,-0.04 -0.781,0.144 -0.692,1.242 -1.178,2.577 -1.75,3.875 -0.061,0.139 0.057,0.234 0.229,0.282 -0.054,0.097 -0.112,0.179 -0.166,0.28 -0.175,0.327 0.805,0.431 0.964,0.133 0.342,-0.639 0.673,-1.268 1.246,-1.681 0.282,-0.05 0.542,-0.18 0.754,-0.444 0.216,-0.268 -0.545,-0.32 -0.71,-0.286 0.752,-0.354 1.925,-0.366 2.685,-0.401 0.447,0.068 0.898,0.115 1.355,0.121 0.125,0.002 0.407,-0.04 0.474,-0.192 0.18,-0.058 0.329,-0.154 0.415,-0.309 0.181,-0.334 -0.367,-0.743 -0.622,-0.817 z"
   id="path250"
   style="fill:#dadada"
   inkscape:connector-curvature="0" />
		<path
   d="m 292.988,196.868 c 0.013,-0.036 0.013,-0.077 -0.006,-0.122 -0.033,-0.076 -0.075,-0.147 -0.11,-0.221 -0.016,-0.083 -0.045,-0.165 -0.087,-0.246 0.047,-0.042 0.062,-0.093 0.01,-0.158 -0.018,-0.023 -0.037,-0.038 -0.055,-0.059 l 0.004,-0.001 c -0.028,-0.024 -0.053,-0.052 -0.078,-0.078 -0.011,-0.01 -0.021,-0.023 -0.032,-0.032 -0.021,-0.023 -0.046,-0.045 -0.068,-0.068 0.238,-0.038 0.412,-0.14 0.241,-0.322 -0.052,-0.056 -0.091,-0.123 -0.141,-0.18 0.073,-0.05 0.12,-0.114 0.066,-0.198 -0.113,-0.176 -0.259,-0.371 -0.413,-0.578 -0.212,-0.384 -0.434,-0.762 -0.712,-1.109 -0.004,-0.005 -0.015,-0.01 -0.021,-0.015 -0.12,-0.247 -0.205,-0.494 -0.211,-0.731 -0.005,-0.202 -0.332,-0.282 -0.611,-0.252 10e-4,-0.17 -0.021,-0.352 -0.095,-0.564 -0.031,-0.089 -0.118,-0.141 -0.224,-0.17 -0.194,-0.216 -0.831,-0.206 -0.927,0.045 -0.077,0.308 -0.248,0.559 -0.512,0.753 -0.092,0.085 -0.095,0.151 -0.051,0.202 -0.087,0.039 -0.157,0.091 -0.142,0.174 0.065,0.356 0.222,0.547 0.468,0.68 -0.029,0.023 -0.058,0.046 -0.087,0.069 -0.094,0.075 -0.079,0.176 0,0.252 0.003,0.003 0.007,0.005 0.011,0.008 -0.019,0.032 -0.026,0.07 -0.017,0.116 0.005,0.027 0.015,0.044 0.021,0.066 h -0.003 c 0.002,0.003 0.004,0.006 0.006,0.009 0.026,0.085 0.061,0.152 0.119,0.241 0.026,0.041 0.07,0.071 0.122,0.095 0.192,0.277 0.386,0.551 0.59,0.816 -0.272,0.026 -0.521,0.127 -0.399,0.276 0.319,0.391 0.619,0.797 0.938,1.188 0.053,0.065 0.15,0.104 0.263,0.125 0.021,0.025 0.044,0.046 0.065,0.071 0.27,0.325 0.833,0.898 0.779,1.363 -0.009,0.077 0.086,0.153 0.146,0.177 0.403,0.161 0.659,0.198 0.991,0.114 0.31,0.063 0.72,-0.029 0.675,-0.228 -0.117,-0.52 -0.299,-1.021 -0.513,-1.508 z"
   id="path252"
   style="fill:#dadada"
   inkscape:connector-curvature="0" />
		<path
   d="m 281.82,198.259 c -0.426,-0.086 -0.777,0.008 -1.085,0.193 -0.054,-0.03 -0.122,-0.055 -0.227,-0.068 -0.25,-0.03 -0.501,-0.032 -0.75,-0.063 -0.112,-0.014 -0.268,0.02 -0.396,0.074 -0.121,-0.003 -0.24,-0.02 -0.362,-0.021 -0.287,-0.001 -0.659,0.242 -0.383,0.408 -0.117,0.043 -0.232,0.097 -0.346,0.166 -0.027,0.017 -0.047,0.038 -0.067,0.059 -0.008,0.001 -0.017,0.001 -0.025,0.002 -0.146,0.021 -0.429,0.105 -0.349,0.308 0.009,0.023 0.015,0.047 0.024,0.07 -0.22,0.002 -0.463,0.062 -0.536,0.113 -0.222,0.154 -0.428,0.316 -0.625,0.5 -0.156,0.145 -0.059,0.235 0.104,0.289 -0.001,0.002 -0.004,0.002 -0.006,0.004 -0.1,0.018 -0.184,0.045 -0.223,0.082 -0.393,0.364 -0.836,0.662 -1.25,1 -0.09,0.073 -0.083,0.178 0,0.252 0.284,0.077 0.323,0.13 0.117,0.158 -0.629,0.178 0.156,0.53 0.505,0.432 0.217,-0.062 0.352,-0.113 0.481,-0.265 0.153,0.074 0.363,0.122 0.461,0.103 0.077,-0.015 0.146,-0.046 0.22,-0.065 l 0,0 c 0.001,0 0.002,-0.001 0.003,-0.001 1.014,-0.257 1.873,-0.857 2.81,-1.311 0.171,-0.083 0.182,-0.254 0.017,-0.341 0.156,-0.013 0.298,-0.056 0.362,-0.144 0.321,-0.454 0.738,-0.74 1.247,-0.952 0.077,-0.032 0.18,-0.134 0.133,-0.228 0.161,-0.121 0.321,-0.243 0.445,-0.386 0.192,-0.222 -0.117,-0.331 -0.299,-0.368 z"
   id="path254"
   style="fill:#dadada"
   inkscape:connector-curvature="0" />
		<g
   id="g256">
			<g
   id="g258">
				<path
   d="M 275,196.333"
   id="path260"
   style="fill:none;stroke:#9f9f9f;stroke-miterlimit:10"
   inkscape:connector-curvature="0" />
			</g>
		</g>
		<path
   d="m 286,186.737 c 0,0 -3,-2.737 -4.125,-2.737 -1.125,0 -2.125,2.737 -2.125,2.737 l 3.125,3.013 3.125,-3.013 z"
   id="path262"
   style="fill:#936037"
   inkscape:connector-curvature="0" />
		<path
   d="m 277,193.25 c -4,2.5 -6.5,0.917 -6.5,3.083 0,2.166 -2,-3.083 -2,-3.083 0,0 0.5,-3.75 4.25,-3.5 3.75,0.25 4.25,3.5 4.25,3.5 z"
   id="path264"
   style="fill:#936037"
   inkscape:connector-curvature="0" />
		<path
   d="m 262.231,186.737 c 2.019,0.263 2.637,-2.979 2.637,-2.979 0,0 2.211,1.965 2.921,2.979 0.71,1.014 -0.789,3.013 -0.789,3.013 l -4.769,-1.425 v -1.588 z"
   id="path266"
   style="fill:#936037"
   inkscape:connector-curvature="0" />
		<path
   d="m 292.518,198.023 c -0.278,-0.336 -0.529,-0.69 -0.769,-1.051 0.231,-0.048 0.399,-0.17 0.245,-0.348 -0.382,-0.441 -0.789,-0.865 -0.95,-1.44 -0.017,-0.06 -0.074,-0.102 -0.145,-0.135 -0.136,-0.24 -0.343,-0.424 -0.709,-0.515 -0.012,-0.003 -0.034,-0.005 -0.055,-0.008 -0.145,-0.417 -0.256,-0.83 -0.322,-1.214 -0.023,-0.134 -0.192,-0.217 -0.383,-0.249 -0.002,-0.028 -0.002,-0.053 -0.001,-0.079 0.019,-0.034 0.024,-0.071 -0.009,-0.113 -0.003,-0.004 -0.006,-0.009 -0.01,-0.013 -0.174,-0.222 -0.928,-0.311 -0.982,0.067 -0.016,0.107 0.008,0.245 0.043,0.384 -0.012,0.021 -0.03,0.041 -0.033,0.066 -0.104,0.737 0.253,1.463 0.643,2.066 0.054,0.083 0.176,0.129 0.316,0.149 0.322,0.521 0.708,1.014 0.997,1.476 0.026,0.042 0.072,0.073 0.125,0.098 0.335,0.426 0.706,0.803 1.113,1.086 0.009,-0.007 0.017,-0.015 0.026,-0.022 0.063,0.08 0.172,0.146 0.382,0.146 h 0.023 c 0.081,0 0.548,-0.083 0.509,-0.256 0,-0.03 -0.016,-0.061 -0.054,-0.095 z"
   id="path268"
   style="fill:#ededed"
   inkscape:connector-curvature="0" />
		<path
   d="m 279.807,201.499 c -0.255,-0.189 -0.561,-0.251 -0.84,-0.195 -0.104,-0.036 -0.217,-0.053 -0.279,-0.054 -0.281,-0.002 -0.5,-0.373 -0.667,-0.728 -0.014,-0.176 -0.027,-0.353 -0.02,-0.522 0,-0.001 -0.002,-0.002 -0.002,-0.004 0.272,-0.274 0.29,-0.432 0.171,-0.813 -0.042,-0.137 -0.235,-0.177 -0.42,-0.18 0,-10e-4 0,-0.002 0,-0.003 0.061,-0.307 -0.884,-0.344 -0.982,-0.066 -0.036,0.102 -0.065,0.205 -0.096,0.308 -0.028,0.01 -0.062,0.006 -0.088,0.019 -0.057,0.028 -0.09,0.067 -0.111,0.109 -0.082,0.02 -0.161,0.03 -0.246,0.07 -0.893,0.425 -1.125,1.619 -1.352,2.498 -0.039,0.151 0.149,0.212 0.349,0.231 -0.105,0.034 -0.298,0.144 -0.206,0.273 0.124,0.175 0.249,0.31 0.425,0.435 0.151,0.107 0.725,0.182 0.88,-0.008 0.141,-0.005 0.275,-0.037 0.37,-0.1 0.163,-0.022 0.31,-0.068 0.435,-0.132 0.031,-0.013 0.063,-0.024 0.087,-0.042 0.088,-0.06 0.144,-0.143 0.18,-0.238 0.45,-0.063 0.883,-0.167 1.279,-0.399 0.214,0.039 0.484,0.017 0.621,-0.087 0.113,0.01 0.229,0 0.333,-0.03 0.132,-0.039 0.369,-0.201 0.179,-0.342 z"
   id="path270"
   style="fill:#ededed"
   inkscape:connector-curvature="0" />
		<path
   d="m 258.877,191.159 c -0.143,-0.031 -0.282,-0.045 -0.422,-0.066 -0.009,-0.011 -0.012,-0.021 -0.024,-0.032 -10e-4,-0.001 -0.002,-0.001 -0.002,-0.002 0.037,-0.049 0.029,-0.11 -0.06,-0.186 -0.026,-0.022 -0.054,-0.03 -0.081,-0.05 10e-4,0 0.002,0 0.003,-0.001 -0.004,-0.002 -0.008,-0.003 -0.012,-0.005 -0.315,-0.228 -0.656,-0.278 -0.997,-0.207 -0.023,10e-4 -0.049,0.004 -0.073,0.005 -0.125,-0.063 -0.26,-0.105 -0.42,-0.11 -0.162,-0.005 -0.322,-0.019 -0.479,0.027 -0.066,0.018 -0.126,0.047 -0.179,0.09 -0.006,0.005 -0.007,0.007 -0.013,0.012 -0.215,-0.029 -0.478,-0.005 -0.6,0.173 -0.17,0.248 -0.311,0.512 -0.443,0.778 -0.024,0.021 -0.054,0.03 -0.076,0.054 -0.38,0.406 -0.486,1.055 -0.73,1.543 -0.025,0.05 -0.021,0.092 -0.004,0.13 -0.382,0.691 -0.661,1.479 -0.701,2.186 -0.02,0.352 0.926,0.339 1,0 0.144,-0.656 0.305,-1.256 0.571,-1.822 0.094,-0.182 0.19,-0.356 0.294,-0.527 0.085,-0.133 0.163,-0.267 0.268,-0.396 0.113,-0.14 0.244,-0.264 0.366,-0.396 0.767,-0.612 1.845,-0.547 2.817,-0.767 0.301,-0.068 0.304,-0.363 -0.003,-0.431 z"
   id="path272"
   style="fill:#ededed"
   inkscape:connector-curvature="0" />
		<path
   d="m 259.752,195.097 c -0.726,-0.243 -1.277,-0.568 -1.996,-0.202 -1.008,0.236 -2.038,1.775 -2.301,2.477 -0.147,0.391 0.795,0.378 0.964,0.133 0.451,-0.657 0.809,-1.107 1.594,-1.376 0.504,-0.172 0.982,-0.262 1.39,-0.575 0.032,0.002 0.066,0.008 0.097,0.009 0.336,0.014 0.744,-0.302 0.252,-0.466 z"
   id="path274"
   style="fill:#ededed"
   inkscape:connector-curvature="0" />
	</g><path
     d="m 379.869,246.988 c -0.351,-0.852 -0.68,-1.711 -1.005,-2.573 -2.9,-3.2 -4.986,-6.782 -6.053,-10.859 -0.942,-1.508 -1.882,-3.015 -2.809,-4.526 -1.709,-1.928 -3.17,-4.075 -4.278,-6.362 -0.399,-0.824 -0.763,-1.666 -1.138,-2.503 -0.152,-0.231 -0.292,-0.469 -0.436,-0.704 -0.129,-0.164 -0.262,-0.328 -0.39,-0.492 -3.82,-4.923 -7.112,-10.047 -8.406,-15.347 -2.757,-4.187 -5.407,-8.47 -7.834,-12.845 -2.014,-1.821 -3.018,-4.533 -3.023,-7.25 -0.71,-1.646 -0.972,-3.5 -0.79,-5.302 -1.359,-2.232 -2.582,-4.192 -3.55,-5.694 0.125,1.656 -0.307,0.43 -0.594,-0.031 -0.669,-1.075 -0.631,-2.669 -0.813,-3.281 -0.115,-0.386 -10.876,13.066 -11.116,12.49 -6.479,9.884 -14.242,23.011 -18.218,29.896 -1.195,2.071 -2.604,4.714 -4.116,7.671 -0.344,-0.564 -0.663,-1.103 -0.972,-1.628 -0.497,1.324 -1.111,2.646 -1.854,3.991 -0.99,1.792 -1.377,4.203 -2.14,6.028 -1.834,4.389 -3.651,8.272 -5.397,12.833 -0.928,2.421 -2.177,4.464 -3.587,6.355 -0.034,1.062 -0.29,2.131 -0.814,3.198 0.037,-0.019 0.063,-0.032 0.063,-0.032 -1.985,4.332 -3.268,7.185 -3.268,7.185 L 285,263.5 c 0,0 24.75,5.25 36.25,6.5 11.5,1.25 24.75,2.5 36.25,0 4.317,-0.938 9.833,-2.976 15.04,-5.155 2.556,-4.466 5.239,-8.853 8.175,-13.083 0.308,-0.443 0.649,-0.85 0.988,-1.259 -0.701,-1.097 -1.321,-2.271 -1.834,-3.515 z"
     id="path22600"
     style="fill:#878787"
     inkscape:connector-curvature="0" /><path
     d="m 367.919,273.209 c 3.072,-5.725 6.246,-11.388 9.743,-16.85 -3.912,-5.402 -11.29,-10.326 -12.84,-11.359 -10.5,-7 -16.322,-0.75 -29.572,-1.5 -14.291,4.271 -19.717,15.879 -21.34,14.75 -10.5,-7.307 -8.048,-17.25 -14.048,-19.75 -6,-2.5 -18.75,-13.5 -26,-21.25 -7.25,-7.75 -13.25,-7 -15,-12.5 -4.5,-0.25 -15.5,12.5 -17.75,22 -1.616,6.823 -8.39,21.511 -12.079,29.248 0.703,1.14 1.299,2.372 1.766,3.681 0.229,0.642 0.364,1.054 0.438,1.312 0.125,0.227 0.286,0.53 0.491,0.927 0.729,1.411 1.468,2.816 2.287,4.178 0.493,0.82 1.002,1.629 1.509,2.439 0.966,1.354 1.903,2.726 2.743,4.17 0.105,0.181 0.206,0.364 0.308,0.546 0.281,0.271 0.546,0.522 0.787,0.748 3.75,3.5 27.389,15.25 33.139,16.75 5.75,1.5 67.902,-3.284 85.25,-13.25 2.587,-1.486 6.4,-2.756 10.168,-4.29 z"
     id="path22602"
     style="fill:#706f6f"
     inkscape:connector-curvature="0" /><path
     d="m 342.166,317.053 c 3.538,-6.673 8.765,-13.001 12.374,-19.161 5.026,-8.58 9.492,-17.513 14.235,-26.275 -1.13,-1.365 -2.69,-2.33 -4.845,-2.531 -9.512,-0.89 -9.822,1.557 -9.822,1.557 0,0 -16,4.667 -25.333,6.333 -9.333,1.666 -20,2.667 -37.292,0.667 -17.292,-2 -26.816,-8.308 -39.375,-8.557 -7.831,-0.155 -12.504,1.007 -14.914,1.904 0.368,0.565 0.732,1.131 1.073,1.717 0.187,0.321 0.362,0.649 0.547,0.972 2.975,4.592 5.624,9.212 8.093,14.108 4.39,8.702 10.58,16.014 14.787,24.655 1.586,1.8 3.317,3.742 4.847,5.537 3.973,-0.017 8.896,-0.482 12.847,-0.77 6.622,-0.482 13.262,-0.361 19.896,-0.273 13.902,0.183 27.812,0.064 41.716,0.064 0.4,0 0.783,0.027 1.166,0.053 z"
     id="path22604"
     style="fill:#575756"
     inkscape:connector-curvature="0" /></g>

</g>
</svg>