<?xml version="1.0" encoding="UTF-8" standalone="no"?>
<!-- Generator: Adobe Illustrator 15.0.0, SVG Export Plug-In . SVG Version: 6.00 Build 0)  -->

<svg
   xmlns:dc="http://purl.org/dc/elements/1.1/"
   xmlns:cc="http://creativecommons.org/ns#"
   xmlns:rdf="http://www.w3.org/1999/02/22-rdf-syntax-ns#"
   xmlns:svg="http://www.w3.org/2000/svg"
   xmlns="http://www.w3.org/2000/svg"
   xmlns:xlink="http://www.w3.org/1999/xlink"
   xmlns:sodipodi="http://sodipodi.sourceforge.net/DTD/sodipodi-0.dtd"
   xmlns:inkscape="http://www.inkscape.org/namespaces/inkscape"
   version="1.1"
   x="0px"
   y="0px"
   width="157"
   height="157"
   viewBox="0 0 157 156.99999"
   enable-background="new 0 0 841.89 595.28"
   xml:space="preserve"
   id="svg2"
   inkscape:version="0.48.2 r9819"
   sodipodi:docname="montagne 1 et mer.svg"><metadata
   id="metadata22612"><rdf:RDF><cc:Work
       rdf:about=""><dc:format>image/svg+xml</dc:format><dc:type
         rdf:resource="http://purl.org/dc/dcmitype/StillImage" /><dc:title></dc:title></cc:Work></rdf:RDF></metadata><defs
   id="defs22610"><radialGradient
     inkscape:collect="always"
     xlink:href="#SVGID_1_"
     id="radialGradient25698"
     gradientUnits="userSpaceOnUse"
     gradientTransform="translate(-224.708,411.08413)"
     cx="302.98441"
     cy="116.6729"
     r="79.653503" /><radialGradient
     inkscape:collect="always"
     xlink:href="#SVGID_2_"
     id="radialGradient25700"
     gradientUnits="userSpaceOnUse"
     gradientTransform="matrix(0.9693,0,0,0.3553,9.306,72.3446)"
     cx="260.93259"
     cy="133.9697"
     r="26.2808" /><radialGradient
     inkscape:collect="always"
     xlink:href="#SVGID_3_"
     id="radialGradient25702"
     gradientUnits="userSpaceOnUse"
     gradientTransform="matrix(0.9693,0,0,0.3553,9.306,72.3446)"
     cx="355.02829"
     cy="96.195297"
     r="14.269" /><radialGradient
     inkscape:collect="always"
     xlink:href="#SVGID_4_"
     id="radialGradient25704"
     gradientUnits="userSpaceOnUse"
     gradientTransform="matrix(0.9693,0,0,0.3553,9.306,72.3446)"
     cx="302.2373"
     cy="83.3955"
     r="14.269" /><radialGradient
     inkscape:collect="always"
     xlink:href="#SVGID_5_"
     id="radialGradient25706"
     gradientUnits="userSpaceOnUse"
     gradientTransform="matrix(0.9693,0,0,0.3553,9.306,72.3446)"
     cx="330.35449"
     cy="-14.0908"
     r="14.269" /><radialGradient
     inkscape:collect="always"
     xlink:href="#SVGID_6_"
     id="radialGradient25708"
     gradientUnits="userSpaceOnUse"
     gradientTransform="matrix(0.9693,0,0,0.3553,9.306,72.3446)"
     cx="318.20901"
     cy="282.56009"
     r="14.2686" /><radialGradient
     inkscape:collect="always"
     xlink:href="#SVGID_7_"
     id="radialGradient25710"
     gradientUnits="userSpaceOnUse"
     gradientTransform="matrix(0.9693,0,0,0.3553,9.306,72.3446)"
     cx="253.9268"
     cy="128.7144"
     r="14.2686" /><radialGradient
     inkscape:collect="always"
     xlink:href="#SVGID_8_"
     id="radialGradient25712"
     gradientUnits="userSpaceOnUse"
     gradientTransform="matrix(0.9693,0,0,0.3553,9.306,72.3446)"
     cx="302.2373"
     cy="-30.3223"
     r="14.269" /><radialGradient
     inkscape:collect="always"
     xlink:href="#SVGID_9_"
     id="radialGradient25714"
     gradientUnits="userSpaceOnUse"
     gradientTransform="matrix(0.9693,0,0,0.3553,9.306,72.3446)"
     cx="326.7197"
     cy="183.3447"
     r="14.269" /><radialGradient
     inkscape:collect="always"
     xlink:href="#SVGID_10_"
     id="radialGradient25716"
     gradientUnits="userSpaceOnUse"
     gradientTransform="matrix(0.9693,0,0,0.3553,9.306,72.3446)"
     cx="330.35449"
     cy="37.834"
     r="14.269" /><radialGradient
     inkscape:collect="always"
     xlink:href="#SVGID_11_"
     id="radialGradient25718"
     gradientUnits="userSpaceOnUse"
     gradientTransform="matrix(0.9693,0,0,0.3553,9.306,72.3446)"
     cx="320.64749"
     cy="189.377"
     r="38.735001" /><radialGradient
     inkscape:collect="always"
     xlink:href="#SVGID_12_"
     id="radialGradient25720"
     gradientUnits="userSpaceOnUse"
     gradientTransform="matrix(0.9693,0,0,0.3553,9.306,72.3446)"
     cx="281.1987"
     cy="242.7515"
     r="25.544001" /><radialGradient
     inkscape:collect="always"
     xlink:href="#SVGID_13_"
     id="radialGradient25722"
     gradientUnits="userSpaceOnUse"
     gradientTransform="matrix(0.9693,0,0,0.3553,9.306,72.3446)"
     cx="303.3501"
     cy="282.6304"
     r="35.440701" /><radialGradient
     inkscape:collect="always"
     xlink:href="#SVGID_14_"
     id="radialGradient25724"
     gradientUnits="userSpaceOnUse"
     gradientTransform="matrix(0.9693,0,0,0.3553,9.306,72.3446)"
     cx="326.7207"
     cy="35.1572"
     r="28.4188" /><radialGradient
     inkscape:collect="always"
     xlink:href="#SVGID_15_"
     id="radialGradient25726"
     gradientUnits="userSpaceOnUse"
     gradientTransform="matrix(0.9693,0,0,0.3553,9.306,72.3446)"
     cx="276.55469"
     cy="4.4071999"
     r="21.8797" /><radialGradient
     inkscape:collect="always"
     xlink:href="#SVGID_16_"
     id="radialGradient25728"
     gradientUnits="userSpaceOnUse"
     gradientTransform="matrix(0.9693,0,0,0.3553,9.306,72.3446)"
     cx="304.7861"
     cy="-27.5518"
     r="29.2488" /></defs><sodipodi:namedview
   pagecolor="#ffffff"
   bordercolor="#666666"
   borderopacity="1"
   objecttolerance="10"
   gridtolerance="10"
   guidetolerance="10"
   inkscape:pageopacity="0"
   inkscape:pageshadow="2"
   inkscape:window-width="1129"
   inkscape:window-height="792"
   id="namedview22608"
   showgrid="false"
   inkscape:zoom="0.79290414"
   inkscape:cx="417.86552"
   inkscape:cy="220.91128"
   inkscape:window-x="0"
   inkscape:window-y="0"
   inkscape:window-maximized="0"
   inkscape:current-layer="Calque_2" />

<g
   id="Calque_2"
   transform="translate(0,-438.28003)">
	<radialGradient
   id="SVGID_1_"
   cx="302.98441"
   cy="116.6729"
   r="79.653503"
   gradientUnits="userSpaceOnUse"
   gradientTransform="translate(-224.708,411.08413)">
		<stop
   offset="0"
   style="stop-color:#1D71B8;stop-opacity:0.95"
   id="stop21" />
		<stop
   offset="0.7455"
   style="stop-color:#1D71B8;stop-opacity:0.5"
   id="stop23" />
		<stop
   offset="1"
   style="stop-color:#1D71B8;stop-opacity:0"
   id="stop25" />
	</radialGradient>
	
	<g
   id="g25589"
   transform="matrix(1.0028424,0,0,1.0570334,0,-33.95097)"><path
     inkscape:connector-curvature="0"
     style="fill:url(#radialGradient25698)"
     id="path27"
     d="m 156.521,526.35913 c -4.585,-4.824 -7.264,-11.368 -9.584,-17.541 -2.283,-3.264 -4.417,-6.536 -6.352,-10.029 -0.365,-0.659 -0.741,-1.313 -1.112,-1.969 -0.563,-0.878 -1.096,-1.769 -1.558,-2.68 -0.042,-0.083 -0.082,-0.168 -0.124,-0.251 -2.459,-4.227 -4.996,-8.407 -7.47,-12.624 -2.762,-3.812 -5.405,-7.647 -6.983,-12.118 -1.332,-1.689 -2.56,-3.453 -3.521,-5.364 -0.988,-1.965 -1.715,-4.004 -2.227,-6.065 -11.555,-6.961 -24.978,-10.967 -39.312,-10.967 -43.232,0 -78.278,36.267 -78.278,81.005 0,0.815 0.014,1.627 0.037,2.437 0.866,1.318 1.631,2.72 2.275,4.2 2.042,2.398 3.922,4.918 5.719,7.315 3.601,4.806 6.761,9.906 9.871,15.038 5.366,8.854 11.261,17.52 16.021,26.731 0.759,1.053 1.452,2.139 2.021,3.272 1.578,3.144 2.565,5.723 3.271,8.377 7.189,0.204 14.375,0.097 21.567,0.011 14.182,-0.17 28.364,0.246 42.544,0.118 2.996,-0.168 6.003,-0.208 9.123,-0.174 1.859,-0.363 3.719,-0.728 5.583,-1.073 5.911,-10.475 12.085,-20.753 18.451,-30.957 2.736,-4.387 5.689,-8.636 8.405,-13.036 1.538,-2.492 3.083,-5 4.384,-7.626 0.14,-0.272 0.26,-0.554 0.396,-0.828 0.084,-0.252 0.197,-0.577 0.345,-0.991 1.375,-4.108 3.624,-7.736 6.489,-10.643 0.019,-0.724 0.053,-1.443 0.053,-2.172 0,-0.467 -0.027,-0.929 -0.034,-1.396 z" /><g
     transform="translate(-229.024,421.30109)"
     style="opacity:0.4"
     id="g29">
		
			<radialGradient
   gradientUnits="userSpaceOnUse"
   gradientTransform="matrix(0.9693,0,0,0.3553,9.306,72.3446)"
   r="26.2808"
   cy="133.9697"
   cx="260.93259"
   id="SVGID_2_">
			<stop
   id="stop32"
   style="stop-color:#1D71B8;stop-opacity:0.95"
   offset="0" />
			<stop
   id="stop34"
   style="stop-color:#1D71B8;stop-opacity:0.5"
   offset="0.7455" />
			<stop
   id="stop36"
   style="stop-color:#1D71B8;stop-opacity:0"
   offset="1" />
		</radialGradient>
		<path
   inkscape:connector-curvature="0"
   style="fill:url(#radialGradient25700);stroke:#312783;stroke-width:0.5;stroke-miterlimit:10"
   id="path38"
   d="m 229.274,120.021 c 3.103,0.949 8.272,0.788 11.115,0.395 2.843,-0.395 11.373,-1.49 11.89,-0.658 0.517,0.833 6.72,1.481 10.857,0.967 4.135,-0.514 12.148,-1.935 12.148,-1.935 0,0 0.259,0.413 3.103,1.059 2.842,0.646 10.338,0 10.338,0 l 3.103,-1.059 c 0,0 0.775,0.792 3.361,1.059"
   stroke-miterlimit="10" />
		
			<radialGradient
   gradientUnits="userSpaceOnUse"
   gradientTransform="matrix(0.9693,0,0,0.3553,9.306,72.3446)"
   r="14.269"
   cy="96.195297"
   cx="355.02829"
   id="SVGID_3_">
			<stop
   id="stop41"
   style="stop-color:#1D71B8;stop-opacity:0.95"
   offset="0" />
			<stop
   id="stop43"
   style="stop-color:#1D71B8;stop-opacity:0.5"
   offset="0.7455" />
			<stop
   id="stop45"
   style="stop-color:#1D71B8;stop-opacity:0"
   offset="1" />
		</radialGradient>
		<path
   inkscape:connector-curvature="0"
   style="fill:url(#radialGradient25702);stroke:#312783;stroke-width:0.5;stroke-miterlimit:10"
   id="path47"
   d="m 335.595,107.186 c 3.877,0 10.597,-1.516 10.597,-1.516 0,0 3.103,1.137 5.429,1.516 2.326,0.379 16.543,-1.516 16.543,-1.516 0,0 -0.24,0.819 3.12,1.243"
   stroke-miterlimit="10" />
		
			<radialGradient
   gradientUnits="userSpaceOnUse"
   gradientTransform="matrix(0.9693,0,0,0.3553,9.306,72.3446)"
   r="14.269"
   cy="83.3955"
   cx="302.2373"
   id="SVGID_4_">
			<stop
   id="stop50"
   style="stop-color:#1D71B8;stop-opacity:0.95"
   offset="0" />
			<stop
   id="stop52"
   style="stop-color:#1D71B8;stop-opacity:0.5"
   offset="0.7455" />
			<stop
   id="stop54"
   style="stop-color:#1D71B8;stop-opacity:0"
   offset="1" />
		</radialGradient>
		<path
   inkscape:connector-curvature="0"
   style="fill:url(#radialGradient25704);stroke:#312783;stroke-width:0.5;stroke-miterlimit:10"
   id="path56"
   d="m 284.424,102.638 c 3.877,0 10.597,-1.516 10.597,-1.516 0,0 3.103,1.137 5.429,1.516 2.326,0.379 16.543,-1.516 16.543,-1.516 0,0 -0.24,0.819 3.12,1.243"
   stroke-miterlimit="10" />
		
			<radialGradient
   gradientUnits="userSpaceOnUse"
   gradientTransform="matrix(0.9693,0,0,0.3553,9.306,72.3446)"
   r="14.269"
   cy="-14.0908"
   cx="330.35449"
   id="SVGID_5_">
			<stop
   id="stop59"
   style="stop-color:#36A9E1;stop-opacity:0.95"
   offset="0" />
			<stop
   id="stop61"
   style="stop-color:#43ACE2;stop-opacity:0.8969"
   offset="0.088" />
			<stop
   id="stop63"
   style="stop-color:#60B3E4;stop-opacity:0.8268"
   offset="0.204" />
			<stop
   id="stop65"
   style="stop-color:#84BFE8;stop-opacity:0.7473"
   offset="0.3357" />
			<stop
   id="stop67"
   style="stop-color:#ABD0ED;stop-opacity:0.6609"
   offset="0.4789" />
			<stop
   id="stop69"
   style="stop-color:#D6E5F3;stop-opacity:0.5698"
   offset="0.6298" />
			<stop
   id="stop71"
   style="stop-color:#F6F6F6;stop-opacity:0.5"
   offset="0.7455" />
			<stop
   id="stop73"
   style="stop-color:#1D71B8;stop-opacity:0"
   offset="1" />
		</radialGradient>
		<path
   inkscape:connector-curvature="0"
   style="fill:url(#radialGradient25706);stroke:#f6f6f6;stroke-width:0.5;stroke-miterlimit:10"
   id="path75"
   d="m 311.678,68 c 3.877,0 10.597,-1.516 10.597,-1.516 0,0 3.103,1.137 5.43,1.516 2.325,0.379 16.543,-1.516 16.543,-1.516 0,0 -0.24,0.819 3.12,1.243"
   stroke-miterlimit="10" />
		
			<radialGradient
   gradientUnits="userSpaceOnUse"
   gradientTransform="matrix(0.9693,0,0,0.3553,9.306,72.3446)"
   r="14.2686"
   cy="282.56009"
   cx="318.20901"
   id="SVGID_6_">
			<stop
   id="stop78"
   style="stop-color:#36A9E1;stop-opacity:0.95"
   offset="0" />
			<stop
   id="stop80"
   style="stop-color:#43ACE2;stop-opacity:0.8969"
   offset="0.088" />
			<stop
   id="stop82"
   style="stop-color:#60B3E4;stop-opacity:0.8268"
   offset="0.204" />
			<stop
   id="stop84"
   style="stop-color:#84BFE8;stop-opacity:0.7473"
   offset="0.3357" />
			<stop
   id="stop86"
   style="stop-color:#ABD0ED;stop-opacity:0.6609"
   offset="0.4789" />
			<stop
   id="stop88"
   style="stop-color:#D6E5F3;stop-opacity:0.5698"
   offset="0.6298" />
			<stop
   id="stop90"
   style="stop-color:#F6F6F6;stop-opacity:0.5"
   offset="0.7455" />
			<stop
   id="stop92"
   style="stop-color:#1D71B8;stop-opacity:0"
   offset="1" />
		</radialGradient>
		<path
   inkscape:connector-curvature="0"
   style="fill:url(#radialGradient25708);stroke:#f6f6f6;stroke-width:0.5;stroke-miterlimit:10"
   id="path94"
   d="m 299.905,173.402 c 3.877,0 10.597,-1.516 10.597,-1.516 0,0 3.103,1.137 5.43,1.516 2.325,0.379 16.543,-1.516 16.543,-1.516 0,0 -0.24,0.819 3.12,1.243"
   stroke-miterlimit="10" />
		
			<radialGradient
   gradientUnits="userSpaceOnUse"
   gradientTransform="matrix(0.9693,0,0,0.3553,9.306,72.3446)"
   r="14.2686"
   cy="128.7144"
   cx="253.9268"
   id="SVGID_7_">
			<stop
   id="stop97"
   style="stop-color:#36A9E1;stop-opacity:0.95"
   offset="0" />
			<stop
   id="stop99"
   style="stop-color:#43ACE2;stop-opacity:0.8969"
   offset="0.088" />
			<stop
   id="stop101"
   style="stop-color:#60B3E4;stop-opacity:0.8268"
   offset="0.204" />
			<stop
   id="stop103"
   style="stop-color:#84BFE8;stop-opacity:0.7473"
   offset="0.3357" />
			<stop
   id="stop105"
   style="stop-color:#ABD0ED;stop-opacity:0.6609"
   offset="0.4789" />
			<stop
   id="stop107"
   style="stop-color:#D6E5F3;stop-opacity:0.5698"
   offset="0.6298" />
			<stop
   id="stop109"
   style="stop-color:#F6F6F6;stop-opacity:0.5"
   offset="0.7455" />
			<stop
   id="stop111"
   style="stop-color:#1D71B8;stop-opacity:0"
   offset="1" />
		</radialGradient>
		<path
   inkscape:connector-curvature="0"
   style="fill:url(#radialGradient25710);stroke:#f6f6f6;stroke-width:0.5;stroke-miterlimit:10"
   id="path113"
   d="m 237.595,118.74 c 3.877,0 10.597,-1.516 10.597,-1.516 0,0 3.103,1.137 5.43,1.516 2.325,0.379 16.543,-1.516 16.543,-1.516 0,0 -0.24,0.819 3.12,1.243"
   stroke-miterlimit="10" />
		
			<radialGradient
   gradientUnits="userSpaceOnUse"
   gradientTransform="matrix(0.9693,0,0,0.3553,9.306,72.3446)"
   r="14.269"
   cy="-30.3223"
   cx="302.2373"
   id="SVGID_8_">
			<stop
   id="stop116"
   style="stop-color:#36A9E1;stop-opacity:0.95"
   offset="0" />
			<stop
   id="stop118"
   style="stop-color:#43ACE2;stop-opacity:0.8969"
   offset="0.088" />
			<stop
   id="stop120"
   style="stop-color:#60B3E4;stop-opacity:0.8268"
   offset="0.204" />
			<stop
   id="stop122"
   style="stop-color:#84BFE8;stop-opacity:0.7473"
   offset="0.3357" />
			<stop
   id="stop124"
   style="stop-color:#ABD0ED;stop-opacity:0.6609"
   offset="0.4789" />
			<stop
   id="stop126"
   style="stop-color:#D6E5F3;stop-opacity:0.5698"
   offset="0.6298" />
			<stop
   id="stop128"
   style="stop-color:#F6F6F6;stop-opacity:0.5"
   offset="0.7455" />
			<stop
   id="stop130"
   style="stop-color:#1D71B8;stop-opacity:0"
   offset="1" />
		</radialGradient>
		<path
   inkscape:connector-curvature="0"
   style="fill:url(#radialGradient25712);stroke:#f6f6f6;stroke-width:0.5;stroke-miterlimit:10"
   id="path132"
   d="m 284.424,62.233 c 3.877,0 10.597,-1.516 10.597,-1.516 0,0 3.103,1.137 5.43,1.516 2.325,0.379 16.543,-1.516 16.543,-1.516 0,0 -0.24,0.819 3.12,1.243"
   stroke-miterlimit="10" />
		
			<radialGradient
   gradientUnits="userSpaceOnUse"
   gradientTransform="matrix(0.9693,0,0,0.3553,9.306,72.3446)"
   r="14.269"
   cy="183.3447"
   cx="326.7197"
   id="SVGID_9_">
			<stop
   id="stop135"
   style="stop-color:#36A9E1;stop-opacity:0.95"
   offset="0" />
			<stop
   id="stop137"
   style="stop-color:#43ACE2;stop-opacity:0.8969"
   offset="0.088" />
			<stop
   id="stop139"
   style="stop-color:#60B3E4;stop-opacity:0.8268"
   offset="0.204" />
			<stop
   id="stop141"
   style="stop-color:#84BFE8;stop-opacity:0.7473"
   offset="0.3357" />
			<stop
   id="stop143"
   style="stop-color:#ABD0ED;stop-opacity:0.6609"
   offset="0.4789" />
			<stop
   id="stop145"
   style="stop-color:#D6E5F3;stop-opacity:0.5698"
   offset="0.6298" />
			<stop
   id="stop147"
   style="stop-color:#F6F6F6;stop-opacity:0.5"
   offset="0.7455" />
			<stop
   id="stop149"
   style="stop-color:#1D71B8;stop-opacity:0"
   offset="1" />
		</radialGradient>
		<path
   inkscape:connector-curvature="0"
   style="fill:url(#radialGradient25714);stroke:#f6f6f6;stroke-width:0.5;stroke-miterlimit:10"
   id="path151"
   d="m 308.155,138.15 c 3.877,0 10.597,-1.516 10.597,-1.516 0,0 3.103,1.137 5.43,1.516 2.325,0.379 16.543,-1.516 16.543,-1.516 0,0 -0.24,0.819 3.12,1.243"
   stroke-miterlimit="10" />
		
			<radialGradient
   gradientUnits="userSpaceOnUse"
   gradientTransform="matrix(0.9693,0,0,0.3553,9.306,72.3446)"
   r="14.269"
   cy="37.834"
   cx="330.35449"
   id="SVGID_10_">
			<stop
   id="stop154"
   style="stop-color:#36A9E1;stop-opacity:0.95"
   offset="0" />
			<stop
   id="stop156"
   style="stop-color:#43ACE2;stop-opacity:0.8969"
   offset="0.088" />
			<stop
   id="stop158"
   style="stop-color:#60B3E4;stop-opacity:0.8268"
   offset="0.204" />
			<stop
   id="stop160"
   style="stop-color:#84BFE8;stop-opacity:0.7473"
   offset="0.3357" />
			<stop
   id="stop162"
   style="stop-color:#ABD0ED;stop-opacity:0.6609"
   offset="0.4789" />
			<stop
   id="stop164"
   style="stop-color:#D6E5F3;stop-opacity:0.5698"
   offset="0.6298" />
			<stop
   id="stop166"
   style="stop-color:#F6F6F6;stop-opacity:0.5"
   offset="0.7455" />
			<stop
   id="stop168"
   style="stop-color:#1D71B8;stop-opacity:0"
   offset="1" />
		</radialGradient>
		<path
   inkscape:connector-curvature="0"
   style="fill:url(#radialGradient25716);stroke:#f6f6f6;stroke-width:0.5;stroke-miterlimit:10"
   id="path170"
   d="m 311.678,86.449 c 3.877,0 10.597,-1.516 10.597,-1.516 0,0 3.103,1.137 5.43,1.516 2.325,0.379 16.543,-1.516 16.543,-1.516 0,0 -0.24,0.819 3.12,1.243"
   stroke-miterlimit="10" />
		
			<radialGradient
   gradientUnits="userSpaceOnUse"
   gradientTransform="matrix(0.9693,0,0,0.3553,9.306,72.3446)"
   r="38.735001"
   cy="189.377"
   cx="320.64749"
   id="SVGID_11_">
			<stop
   id="stop173"
   style="stop-color:#1D71B8;stop-opacity:0.95"
   offset="0" />
			<stop
   id="stop175"
   style="stop-color:#1D71B8;stop-opacity:0.5"
   offset="0.7455" />
			<stop
   id="stop177"
   style="stop-color:#1D71B8;stop-opacity:0"
   offset="1" />
		</radialGradient>
		<path
   inkscape:connector-curvature="0"
   style="fill:url(#radialGradient25718);stroke:#312783;stroke-width:0.5;stroke-miterlimit:10"
   id="path179"
   d="m 271.456,139.993 c 3.877,0 10.598,-1.516 10.598,-1.516 0,0 3.103,1.137 5.429,1.516 2.326,0.379 16.543,-1.516 16.543,-1.516 0,0 1.551,1.142 4.91,1.566 3.361,0.423 17.319,-1.566 17.319,-1.566 0,0 2.327,0.284 5.429,1.231 3.102,0.948 8.271,0.788 11.115,0.394 2.843,-0.394 11.373,-1.49 11.89,-0.658 0.517,0.832 6.721,1.482 10.857,0.967 0.926,-0.115 2.046,-0.275 3.228,-0.456"
   stroke-miterlimit="10" />
		
			<radialGradient
   gradientUnits="userSpaceOnUse"
   gradientTransform="matrix(0.9693,0,0,0.3553,9.306,72.3446)"
   r="25.544001"
   cy="242.7515"
   cx="281.1987"
   id="SVGID_12_">
			<stop
   id="stop182"
   style="stop-color:#1D71B8;stop-opacity:0.95"
   offset="0" />
			<stop
   id="stop184"
   style="stop-color:#1D71B8;stop-opacity:0.5"
   offset="0.7455" />
			<stop
   id="stop186"
   style="stop-color:#1D71B8;stop-opacity:0"
   offset="1" />
		</radialGradient>
		<path
   inkscape:connector-curvature="0"
   style="fill:url(#radialGradient25720);stroke:#312783;stroke-width:0.5;stroke-miterlimit:10"
   id="path188"
   d="m 249.848,159.083 c 3.036,0.472 6.927,0.306 9.255,-0.017 2.843,-0.394 11.373,-1.49 11.89,-0.658 0.518,0.832 6.721,1.482 10.857,0.968 4.135,-0.515 12.149,-1.936 12.149,-1.936 0,0 0.258,0.413 3.103,1.059 2.842,0.647 10.338,0 10.338,0 l 3.102,-1.059 c 0,0 0.775,0.792 3.36,1.059"
   stroke-miterlimit="10" />
		
			<radialGradient
   gradientUnits="userSpaceOnUse"
   gradientTransform="matrix(0.9693,0,0,0.3553,9.306,72.3446)"
   r="35.440701"
   cy="282.6304"
   cx="303.3501"
   id="SVGID_13_">
			<stop
   id="stop191"
   style="stop-color:#1D71B8;stop-opacity:0.95"
   offset="0" />
			<stop
   id="stop193"
   style="stop-color:#1D71B8;stop-opacity:0.5"
   offset="0.7455" />
			<stop
   id="stop195"
   style="stop-color:#1D71B8;stop-opacity:0"
   offset="1" />
		</radialGradient>
		<path
   inkscape:connector-curvature="0"
   style="fill:url(#radialGradient25722);stroke:#312783;stroke-width:0.5;stroke-miterlimit:10"
   id="path197"
   d="m 258.839,173.049 c 4.98,-0.373 12.977,-1.438 12.977,-1.438 0,0 1.55,1.142 4.912,1.566 3.36,0.424 17.318,-1.566 17.318,-1.566 0,0 2.326,0.284 5.428,1.231 3.103,0.948 8.272,0.788 11.115,0.394 2.843,-0.394 11.373,-1.49 11.89,-0.657 0.518,0.833 6.72,1.481 10.857,0.967 4.135,-0.514 12.149,-1.935 12.149,-1.935 0,0 -0.474,0.236 2.37,0.883"
   stroke-miterlimit="10" />
		
			<radialGradient
   gradientUnits="userSpaceOnUse"
   gradientTransform="matrix(0.9693,0,0,0.3553,9.306,72.3446)"
   r="28.4188"
   cy="35.1572"
   cx="326.7207"
   id="SVGID_14_">
			<stop
   id="stop200"
   style="stop-color:#1D71B8;stop-opacity:0.95"
   offset="0" />
			<stop
   id="stop202"
   style="stop-color:#1D71B8;stop-opacity:0.5"
   offset="0.7455" />
			<stop
   id="stop204"
   style="stop-color:#1D71B8;stop-opacity:0"
   offset="1" />
		</radialGradient>
		<path
   inkscape:connector-curvature="0"
   style="fill:url(#radialGradient25724);stroke:#312783;stroke-width:0.5;stroke-miterlimit:10"
   id="path206"
   d="m 290.33,85.297 c 3.877,0 10.597,-1.516 10.597,-1.516 0,0 3.103,1.138 5.429,1.516 2.326,0.379 16.543,-1.516 16.543,-1.516 0,0 1.551,1.143 4.911,1.566 3.36,0.423 17.319,-1.566 17.319,-1.566 0,0 2.326,0.284 5.428,1.232 3.101,0.948 8.272,0.787 11.114,0.394"
   stroke-miterlimit="10" />
		
			<radialGradient
   gradientUnits="userSpaceOnUse"
   gradientTransform="matrix(0.9693,0,0,0.3553,9.306,72.3446)"
   r="21.8797"
   cy="4.4071999"
   cx="276.55469"
   id="SVGID_15_">
			<stop
   id="stop209"
   style="stop-color:#1D71B8;stop-opacity:0.95"
   offset="0" />
			<stop
   id="stop211"
   style="stop-color:#1D71B8;stop-opacity:0.5"
   offset="0.7455" />
			<stop
   id="stop213"
   style="stop-color:#1D71B8;stop-opacity:0"
   offset="1" />
		</radialGradient>
		<path
   inkscape:connector-curvature="0"
   style="fill:url(#radialGradient25726);stroke:#312783;stroke-width:0.5;stroke-miterlimit:10"
   id="path215"
   d="m 249.974,74.38 c 2.843,-0.393 11.374,-1.49 11.89,-0.657 0.518,0.832 6.721,1.481 10.857,0.968 4.136,-0.515 12.149,-1.936 12.149,-1.936 0,0 0.257,0.413 3.101,1.059 2.844,0.646 10.339,0 10.339,0 l 3.102,-1.059 c 0,0 0.774,0.792 3.36,1.059"
   stroke-miterlimit="10" />
		
			<radialGradient
   gradientUnits="userSpaceOnUse"
   gradientTransform="matrix(0.9693,0,0,0.3553,9.306,72.3446)"
   r="29.2488"
   cy="-27.5518"
   cx="304.7861"
   id="SVGID_16_">
			<stop
   id="stop218"
   style="stop-color:#1D71B8;stop-opacity:0.95"
   offset="0" />
			<stop
   id="stop220"
   style="stop-color:#1D71B8;stop-opacity:0.5"
   offset="0.7455" />
			<stop
   id="stop222"
   style="stop-color:#1D71B8;stop-opacity:0"
   offset="1" />
		</radialGradient>
		<path
   inkscape:connector-curvature="0"
   style="fill:url(#radialGradient25728);stroke:#312783;stroke-width:0.5;stroke-miterlimit:10"
   id="path224"
   d="m 268.021,63.016 c 3.877,0 10.598,-1.516 10.598,-1.516 0,0 3.103,1.137 5.429,1.516 2.326,0.379 16.543,-1.516 16.543,-1.516 0,0 1.551,1.143 4.91,1.566 3.361,0.424 17.319,-1.566 17.319,-1.566 0,0 2.327,0.284 5.429,1.232 3.102,0.947 8.271,0.787 11.115,0.394 2.843,-0.394 1.965,-0.658 1.965,-0.658"
   stroke-miterlimit="10" />
	</g></g>
	
	
	
	
	
	
	
	
	
	
</g>
</svg>